<?xml version="1.0" encoding="utf-8"?>
<!-- Generator: Adobe Illustrator 21.0.0, SVG Export Plug-In . SVG Version: 6.00 Build 0)  -->
<svg version="1.1" id="Calque_1" xmlns="http://www.w3.org/2000/svg" xmlns:xlink="http://www.w3.org/1999/xlink" x="0px" y="0px"
	 viewBox="0 0 400 400" style="enable-background:new 0 0 400 400;" xml:space="preserve">
<style type="text/css">
	.st0{fill:url(#SVGID_1_);}
	.st1{fill:#FFFFFF;}
	.st2{opacity:0.29;fill:#FFFFFF;enable-background:new    ;}
</style>
<g>
	<g>
		<g>
			<g>
				
					<linearGradient id="SVGID_1_" gradientUnits="userSpaceOnUse" x1="1244.8026" y1="399.6151" x2="1064.0708" y2="-6.3151" gradientTransform="matrix(-1 0 0 -1 1354.8867 402)">
					<stop  offset="0" style="stop-color:#C9CACD"/>
					<stop  offset="0.2193" style="stop-color:#BDBEC1"/>
					<stop  offset="0.6127" style="stop-color:#9E9FA3"/>
					<stop  offset="1" style="stop-color:#7A7A7F"/>
				</linearGradient>
				<rect x="3.1" y="50" class="st0" width="394.6" height="310.7"/>
			</g>
		</g>
		<g>
			<polygon class="st1" points="56.3,319 56.3,91 71.6,91 71.6,197.4 86.8,197.4 86.8,91 101.9,91 101.9,319 86.8,319 86.8,212.6 
				71.6,212.6 71.6,319 			"/>
			<rect x="123.9" y="91" class="st1" width="15.2" height="228.1"/>
			<polygon class="st1" points="176.3,106.1 161.1,106.1 161.1,91 206.7,91 206.7,106.1 191.4,106.1 191.4,319 176.3,319 			"/>
			<polygon class="st1" points="228.7,91 274.3,91 274.3,106.1 243.8,106.1 243.8,197.4 274.3,197.4 274.3,212.6 243.8,212.6 
				243.8,303.9 274.3,303.9 274.3,319 228.7,319 			"/>
			<polygon class="st1" points="296.2,91 341.9,91 341.9,106.1 311.4,106.1 311.4,303.9 341.9,303.9 341.9,319 296.2,319 			"/>
		</g>
		<path class="st2" d="M3.1,50v210.2c0,0,225.6,15.5,394.6-72.4c0-16.4,0-137.8,0-137.8"/>
	</g>
</g>
</svg>
