<?xml version="1.0" encoding="utf-8"?>
<!-- Generator: Adobe Illustrator 21.0.0, SVG Export Plug-In . SVG Version: 6.00 Build 0)  -->
<svg version="1.1" id="Calque_1" xmlns="http://www.w3.org/2000/svg" xmlns:xlink="http://www.w3.org/1999/xlink" x="0px" y="0px"
	 viewBox="0 0 400 400" style="enable-background:new 0 0 400 400;" xml:space="preserve">
<style type="text/css">
	.st0{fill:#FFFFFF;}
</style>
<g>
	<rect x="107.9" y="48.1" class="st0" width="16" height="297.3"/>
	<polygon class="st0" points="193.3,49.2 177.4,49.2 177.4,49.2 159.3,49.2 159.3,68 177.4,68 177.4,346.4 193.3,346.4 193.3,68 
		212.6,68 212.6,49.2 	"/>
	<polygon class="st0" points="260.9,207.7 302.4,207.7 302.4,188.9 260.9,188.9 260.9,65.6 302.2,65.6 302.2,46.8 260.9,46.8 
		260.9,46.7 244.9,46.7 244.9,344 260.9,344 260.9,344 303.6,344 303.6,325.2 260.9,325.2 	"/>
	<polygon class="st0" points="399,65.6 399,46.8 347.5,46.8 347.5,46.7 331.6,46.7 331.6,344 345.7,344 345.7,344 399,344 
		399,325.3 347.5,325.3 347.5,65.6 	"/>
	<polygon class="st0" points="59.4,188.3 38,188.3 38,48.1 22,48.1 22,345.4 38,345.4 38,207 59.4,207 59.4,345.4 76.1,345.4 
		76.1,48.3 59.4,48.3 	"/>
</g>
</svg>
